<mxfile host="app.diagrams.net" modified="2020-09-25T22:01:07.240Z" agent="5.0 (Windows NT 10.0; Win64; x64) AppleWebKit/537.36 (KHTML, like Gecko) Chrome/85.0.4183.121 Safari/537.36" etag="03ApBzdeULIfiHj0TjXa" version="13.7.5" type="github">
  <diagram id="ItuifjqRIwDzFbKC9WBl" name="Page-1">
    <mxGraphModel dx="3555" dy="1905" grid="1" gridSize="10" guides="1" tooltips="1" connect="1" arrows="1" fold="1" page="1" pageScale="1" pageWidth="850" pageHeight="1100" math="0" shadow="0">
      <root>
        <mxCell id="0" />
        <mxCell id="1" parent="0" />
        <mxCell id="52mvo-1do-57cpNClRD--32" style="edgeStyle=orthogonalEdgeStyle;rounded=0;orthogonalLoop=1;jettySize=auto;html=1;entryX=0.5;entryY=0;entryDx=0;entryDy=0;fontSize=10;" parent="1" source="52mvo-1do-57cpNClRD--2" target="52mvo-1do-57cpNClRD--22" edge="1">
          <mxGeometry relative="1" as="geometry" />
        </mxCell>
        <mxCell id="52mvo-1do-57cpNClRD--2" value="Start" style="rounded=1;whiteSpace=wrap;html=1;glass=0;fontSize=10;fillColor=#d5e8d4;strokeColor=#82b366;" parent="1" vertex="1">
          <mxGeometry x="177" width="120" height="30" as="geometry" />
        </mxCell>
        <mxCell id="52mvo-1do-57cpNClRD--7" value="" style="edgeStyle=orthogonalEdgeStyle;rounded=0;orthogonalLoop=1;jettySize=auto;html=1;fontSize=10;" parent="1" source="52mvo-1do-57cpNClRD--3" target="52mvo-1do-57cpNClRD--6" edge="1">
          <mxGeometry relative="1" as="geometry" />
        </mxCell>
        <mxCell id="52mvo-1do-57cpNClRD--3" value="Create River" style="rounded=0;whiteSpace=wrap;html=1;shadow=0;fillColor=#ffe6cc;strokeColor=#d79b00;fontSize=10;" parent="1" vertex="1">
          <mxGeometry x="324.5" y="75" width="72.5" height="20" as="geometry" />
        </mxCell>
        <mxCell id="IXRtnwXpxsoN9EVaq035-75" style="edgeStyle=orthogonalEdgeStyle;rounded=0;orthogonalLoop=1;jettySize=auto;html=1;entryX=1;entryY=0;entryDx=0;entryDy=0;fontSize=10;" edge="1" parent="1" source="52mvo-1do-57cpNClRD--6" target="IXRtnwXpxsoN9EVaq035-20">
          <mxGeometry relative="1" as="geometry">
            <Array as="points">
              <mxPoint x="475" y="250" />
              <mxPoint x="260" y="250" />
            </Array>
          </mxGeometry>
        </mxCell>
        <mxCell id="52mvo-1do-57cpNClRD--6" value="&lt;font style=&quot;font-size: 10px;&quot;&gt;name&lt;br style=&quot;font-size: 10px;&quot;&gt;desc&lt;br style=&quot;font-size: 10px;&quot;&gt;&lt;/font&gt;" style="rounded=0;whiteSpace=wrap;html=1;fillColor=#dae8fc;strokeColor=#6c8ebf;fontSize=10;" parent="1" vertex="1">
          <mxGeometry x="452" y="110" width="45" height="35" as="geometry" />
        </mxCell>
        <mxCell id="52mvo-1do-57cpNClRD--35" style="edgeStyle=orthogonalEdgeStyle;rounded=0;orthogonalLoop=1;jettySize=auto;html=1;entryX=0;entryY=0.5;entryDx=0;entryDy=0;exitX=1;exitY=0.5;exitDx=0;exitDy=0;fontSize=10;" parent="1" source="IXRtnwXpxsoN9EVaq035-15" target="52mvo-1do-57cpNClRD--11" edge="1">
          <mxGeometry relative="1" as="geometry">
            <mxPoint x="637" y="350.02857142857135" as="sourcePoint" />
          </mxGeometry>
        </mxCell>
        <mxCell id="IXRtnwXpxsoN9EVaq035-38" style="edgeStyle=orthogonalEdgeStyle;rounded=0;orthogonalLoop=1;jettySize=auto;html=1;entryX=1;entryY=0;entryDx=0;entryDy=0;fontSize=10;exitX=0.5;exitY=1;exitDx=0;exitDy=0;" edge="1" parent="1" source="52mvo-1do-57cpNClRD--11" target="52mvo-1do-57cpNClRD--27">
          <mxGeometry relative="1" as="geometry">
            <Array as="points">
              <mxPoint x="518" y="470" />
              <mxPoint x="259" y="470" />
            </Array>
          </mxGeometry>
        </mxCell>
        <mxCell id="52mvo-1do-57cpNClRD--11" value="name&lt;br style=&quot;font-size: 10px;&quot;&gt;desc&lt;br style=&quot;font-size: 10px;&quot;&gt;overviewMap&lt;br style=&quot;font-size: 10px;&quot;&gt;access&lt;br style=&quot;font-size: 10px;&quot;&gt;location&lt;br style=&quot;font-size: 10px;&quot;&gt;class&lt;br style=&quot;font-size: 10px;&quot;&gt;putIn&lt;br style=&quot;font-size: 10px;&quot;&gt;takeOut&lt;br style=&quot;font-size: 10px;&quot;&gt;levelRange&lt;br style=&quot;font-size: 10px;&quot;&gt;sponsors" style="whiteSpace=wrap;html=1;rounded=0;strokeColor=#6c8ebf;fillColor=#dae8fc;fontSize=10;" parent="1" vertex="1">
          <mxGeometry x="484.5" y="230" width="67.5" height="130" as="geometry" />
        </mxCell>
        <mxCell id="IXRtnwXpxsoN9EVaq035-78" style="edgeStyle=orthogonalEdgeStyle;rounded=0;orthogonalLoop=1;jettySize=auto;html=1;entryX=1;entryY=0.75;entryDx=0;entryDy=0;fontSize=10;exitX=0.45;exitY=0.983;exitDx=0;exitDy=0;exitPerimeter=0;" edge="1" parent="1" source="52mvo-1do-57cpNClRD--15" target="IXRtnwXpxsoN9EVaq035-67">
          <mxGeometry relative="1" as="geometry" />
        </mxCell>
        <mxCell id="52mvo-1do-57cpNClRD--15" value="name&lt;br style=&quot;font-size: 10px&quot;&gt;desc&lt;br style=&quot;font-size: 10px&quot;&gt;riverMap&lt;br style=&quot;font-size: 10px&quot;&gt;mapLabel" style="whiteSpace=wrap;html=1;rounded=0;strokeColor=#6c8ebf;fillColor=#dae8fc;fontSize=10;" parent="1" vertex="1">
          <mxGeometry x="542" y="500" width="120" height="60" as="geometry" />
        </mxCell>
        <mxCell id="52mvo-1do-57cpNClRD--24" value="No" style="edgeStyle=orthogonalEdgeStyle;rounded=0;orthogonalLoop=1;jettySize=auto;html=1;fontSize=10;" parent="1" source="52mvo-1do-57cpNClRD--22" target="52mvo-1do-57cpNClRD--3" edge="1">
          <mxGeometry relative="1" as="geometry" />
        </mxCell>
        <mxCell id="52mvo-1do-57cpNClRD--42" value="Yes" style="edgeStyle=orthogonalEdgeStyle;rounded=0;orthogonalLoop=1;jettySize=auto;html=1;entryX=0.5;entryY=0;entryDx=0;entryDy=0;fontSize=10;" parent="1" source="52mvo-1do-57cpNClRD--22" target="52mvo-1do-57cpNClRD--41" edge="1">
          <mxGeometry relative="1" as="geometry" />
        </mxCell>
        <mxCell id="52mvo-1do-57cpNClRD--22" value="Does Desired River Exist?" style="rhombus;whiteSpace=wrap;html=1;rounded=0;shadow=0;glass=0;fillColor=#fff2cc;strokeColor=#d6b656;fontSize=10;" parent="1" vertex="1">
          <mxGeometry x="194.5" y="50" width="85" height="70" as="geometry" />
        </mxCell>
        <mxCell id="52mvo-1do-57cpNClRD--45" value="Yes" style="edgeStyle=orthogonalEdgeStyle;rounded=0;orthogonalLoop=1;jettySize=auto;html=1;entryX=0.458;entryY=0.028;entryDx=0;entryDy=0;entryPerimeter=0;fontSize=10;" parent="1" source="52mvo-1do-57cpNClRD--27" target="52mvo-1do-57cpNClRD--44" edge="1">
          <mxGeometry relative="1" as="geometry" />
        </mxCell>
        <mxCell id="52mvo-1do-57cpNClRD--27" value="Does Desired Rapid Exist?" style="rhombus;whiteSpace=wrap;html=1;rounded=0;shadow=0;glass=0;fillColor=#fff2cc;strokeColor=#d6b656;fontSize=10;" parent="1" vertex="1">
          <mxGeometry x="192" y="490" width="90" height="80" as="geometry" />
        </mxCell>
        <mxCell id="IXRtnwXpxsoN9EVaq035-2" style="edgeStyle=orthogonalEdgeStyle;rounded=0;orthogonalLoop=1;jettySize=auto;html=1;entryX=0.5;entryY=0;entryDx=0;entryDy=0;fontSize=10;" edge="1" parent="1" source="52mvo-1do-57cpNClRD--41" target="IXRtnwXpxsoN9EVaq035-1">
          <mxGeometry relative="1" as="geometry" />
        </mxCell>
        <mxCell id="52mvo-1do-57cpNClRD--41" value="Select Desired River" style="rounded=0;whiteSpace=wrap;html=1;shadow=0;glass=0;fillColor=#ffe6cc;strokeColor=#d79b00;fontSize=10;" parent="1" vertex="1">
          <mxGeometry x="182" y="160" width="110" height="20" as="geometry" />
        </mxCell>
        <mxCell id="IXRtnwXpxsoN9EVaq035-42" style="edgeStyle=orthogonalEdgeStyle;rounded=0;orthogonalLoop=1;jettySize=auto;html=1;entryX=0.5;entryY=0;entryDx=0;entryDy=0;fontSize=10;" edge="1" parent="1" source="52mvo-1do-57cpNClRD--44" target="IXRtnwXpxsoN9EVaq035-41">
          <mxGeometry relative="1" as="geometry" />
        </mxCell>
        <mxCell id="52mvo-1do-57cpNClRD--44" value="Select Rapid" style="rounded=0;whiteSpace=wrap;html=1;shadow=0;glass=0;fillColor=#ffe6cc;strokeColor=#d79b00;fontSize=10;" parent="1" vertex="1">
          <mxGeometry x="189.5" y="610" width="105" height="20" as="geometry" />
        </mxCell>
        <mxCell id="IXRtnwXpxsoN9EVaq035-6" value="Yes" style="edgeStyle=orthogonalEdgeStyle;rounded=0;orthogonalLoop=1;jettySize=auto;html=1;entryX=0.5;entryY=1;entryDx=0;entryDy=0;fontSize=10;" edge="1" parent="1" source="IXRtnwXpxsoN9EVaq035-1" target="IXRtnwXpxsoN9EVaq035-8">
          <mxGeometry relative="1" as="geometry" />
        </mxCell>
        <mxCell id="IXRtnwXpxsoN9EVaq035-12" value="No" style="edgeStyle=orthogonalEdgeStyle;rounded=0;orthogonalLoop=1;jettySize=auto;html=1;entryX=0.5;entryY=0;entryDx=0;entryDy=0;fontSize=10;" edge="1" parent="1" source="IXRtnwXpxsoN9EVaq035-1" target="IXRtnwXpxsoN9EVaq035-20">
          <mxGeometry relative="1" as="geometry">
            <mxPoint x="262" y="370" as="targetPoint" />
          </mxGeometry>
        </mxCell>
        <mxCell id="IXRtnwXpxsoN9EVaq035-1" value="Edit it?" style="rhombus;whiteSpace=wrap;html=1;rounded=0;shadow=0;glass=0;fillColor=#fff2cc;strokeColor=#d6b656;fontSize=10;" vertex="1" parent="1">
          <mxGeometry x="187" y="200" width="100" height="40" as="geometry" />
        </mxCell>
        <mxCell id="IXRtnwXpxsoN9EVaq035-76" style="edgeStyle=orthogonalEdgeStyle;rounded=0;orthogonalLoop=1;jettySize=auto;html=1;entryX=0;entryY=0.5;entryDx=0;entryDy=0;fontSize=10;" edge="1" parent="1" source="IXRtnwXpxsoN9EVaq035-8" target="52mvo-1do-57cpNClRD--6">
          <mxGeometry relative="1" as="geometry" />
        </mxCell>
        <mxCell id="IXRtnwXpxsoN9EVaq035-8" value="Append River" style="rounded=0;whiteSpace=wrap;html=1;shadow=0;fillColor=#ffe6cc;strokeColor=#d79b00;fontSize=10;" vertex="1" parent="1">
          <mxGeometry x="312" y="117.5" width="110" height="20" as="geometry" />
        </mxCell>
        <mxCell id="IXRtnwXpxsoN9EVaq035-16" value="No" style="edgeStyle=orthogonalEdgeStyle;rounded=0;orthogonalLoop=1;jettySize=auto;html=1;entryX=0;entryY=0.5;entryDx=0;entryDy=0;exitX=1;exitY=0.5;exitDx=0;exitDy=0;fontSize=10;" edge="1" parent="1" source="IXRtnwXpxsoN9EVaq035-20" target="IXRtnwXpxsoN9EVaq035-15">
          <mxGeometry relative="1" as="geometry">
            <mxPoint x="322" y="385" as="sourcePoint" />
          </mxGeometry>
        </mxCell>
        <mxCell id="IXRtnwXpxsoN9EVaq035-23" value="Yes" style="edgeStyle=orthogonalEdgeStyle;rounded=0;orthogonalLoop=1;jettySize=auto;html=1;entryX=0;entryY=0.5;entryDx=0;entryDy=0;fontSize=10;" edge="1" parent="1" source="IXRtnwXpxsoN9EVaq035-13" target="IXRtnwXpxsoN9EVaq035-21">
          <mxGeometry relative="1" as="geometry" />
        </mxCell>
        <mxCell id="IXRtnwXpxsoN9EVaq035-28" value="No" style="edgeStyle=orthogonalEdgeStyle;rounded=0;orthogonalLoop=1;jettySize=auto;html=1;fontSize=10;" edge="1" parent="1" source="IXRtnwXpxsoN9EVaq035-13" target="52mvo-1do-57cpNClRD--27">
          <mxGeometry relative="1" as="geometry" />
        </mxCell>
        <mxCell id="IXRtnwXpxsoN9EVaq035-13" value="Edit it?" style="rhombus;whiteSpace=wrap;html=1;rounded=0;shadow=0;glass=0;fillColor=#fff2cc;strokeColor=#d6b656;fontSize=10;" vertex="1" parent="1">
          <mxGeometry x="187" y="420" width="100" height="40" as="geometry" />
        </mxCell>
        <mxCell id="IXRtnwXpxsoN9EVaq035-15" value="Create Section" style="rounded=0;whiteSpace=wrap;html=1;shadow=0;fillColor=#ffe6cc;strokeColor=#d79b00;fontSize=10;" vertex="1" parent="1">
          <mxGeometry x="324.5" y="295" width="110" height="20" as="geometry" />
        </mxCell>
        <mxCell id="IXRtnwXpxsoN9EVaq035-26" value="Yes" style="edgeStyle=orthogonalEdgeStyle;rounded=0;orthogonalLoop=1;jettySize=auto;html=1;entryX=0.5;entryY=0;entryDx=0;entryDy=0;fontSize=10;" edge="1" parent="1" source="IXRtnwXpxsoN9EVaq035-20" target="IXRtnwXpxsoN9EVaq035-25">
          <mxGeometry relative="1" as="geometry" />
        </mxCell>
        <mxCell id="IXRtnwXpxsoN9EVaq035-20" value="Does Desired Section Exist?" style="rhombus;whiteSpace=wrap;html=1;rounded=0;shadow=0;glass=0;fillColor=#fff2cc;strokeColor=#d6b656;fontSize=10;" vertex="1" parent="1">
          <mxGeometry x="192" y="270" width="90" height="70" as="geometry" />
        </mxCell>
        <mxCell id="IXRtnwXpxsoN9EVaq035-24" style="edgeStyle=orthogonalEdgeStyle;rounded=0;orthogonalLoop=1;jettySize=auto;html=1;entryX=0;entryY=0.75;entryDx=0;entryDy=0;fontSize=10;" edge="1" parent="1" source="IXRtnwXpxsoN9EVaq035-21" target="52mvo-1do-57cpNClRD--11">
          <mxGeometry relative="1" as="geometry" />
        </mxCell>
        <mxCell id="IXRtnwXpxsoN9EVaq035-21" value="Append Section" style="rounded=0;whiteSpace=wrap;html=1;shadow=0;fillColor=#ffe6cc;strokeColor=#d79b00;fontSize=10;" vertex="1" parent="1">
          <mxGeometry x="327" y="330" width="110" height="20" as="geometry" />
        </mxCell>
        <mxCell id="IXRtnwXpxsoN9EVaq035-27" value="" style="edgeStyle=orthogonalEdgeStyle;rounded=0;orthogonalLoop=1;jettySize=auto;html=1;fontSize=10;" edge="1" parent="1" source="IXRtnwXpxsoN9EVaq035-25" target="IXRtnwXpxsoN9EVaq035-13">
          <mxGeometry relative="1" as="geometry" />
        </mxCell>
        <mxCell id="IXRtnwXpxsoN9EVaq035-25" value="Select Desired Section" style="rounded=0;whiteSpace=wrap;html=1;shadow=0;glass=0;fillColor=#ffe6cc;strokeColor=#d79b00;fontSize=10;" vertex="1" parent="1">
          <mxGeometry x="182" y="380" width="110" height="20" as="geometry" />
        </mxCell>
        <mxCell id="IXRtnwXpxsoN9EVaq035-31" value="No" style="edgeStyle=orthogonalEdgeStyle;rounded=0;orthogonalLoop=1;jettySize=auto;html=1;entryX=0;entryY=0.5;entryDx=0;entryDy=0;exitX=1;exitY=0.5;exitDx=0;exitDy=0;fontSize=10;" edge="1" parent="1" target="IXRtnwXpxsoN9EVaq035-33" source="52mvo-1do-57cpNClRD--27">
          <mxGeometry relative="1" as="geometry">
            <mxPoint x="322" y="635" as="sourcePoint" />
          </mxGeometry>
        </mxCell>
        <mxCell id="IXRtnwXpxsoN9EVaq035-32" value="Yes" style="edgeStyle=orthogonalEdgeStyle;rounded=0;orthogonalLoop=1;jettySize=auto;html=1;entryX=0;entryY=0.5;entryDx=0;entryDy=0;fontSize=10;exitX=1;exitY=0.5;exitDx=0;exitDy=0;" edge="1" parent="1" target="IXRtnwXpxsoN9EVaq035-35" source="IXRtnwXpxsoN9EVaq035-41">
          <mxGeometry relative="1" as="geometry">
            <mxPoint x="332" y="800" as="sourcePoint" />
          </mxGeometry>
        </mxCell>
        <mxCell id="IXRtnwXpxsoN9EVaq035-36" style="edgeStyle=orthogonalEdgeStyle;rounded=0;orthogonalLoop=1;jettySize=auto;html=1;entryX=0.5;entryY=0;entryDx=0;entryDy=0;fontSize=10;" edge="1" parent="1" source="IXRtnwXpxsoN9EVaq035-33" target="52mvo-1do-57cpNClRD--15">
          <mxGeometry relative="1" as="geometry" />
        </mxCell>
        <mxCell id="IXRtnwXpxsoN9EVaq035-33" value="Create Rapid" style="rounded=0;whiteSpace=wrap;html=1;shadow=0;fillColor=#ffe6cc;strokeColor=#d79b00;fontSize=10;" vertex="1" parent="1">
          <mxGeometry x="337" y="490" width="110" height="20" as="geometry" />
        </mxCell>
        <mxCell id="IXRtnwXpxsoN9EVaq035-37" style="edgeStyle=orthogonalEdgeStyle;rounded=0;orthogonalLoop=1;jettySize=auto;html=1;entryX=0;entryY=0.5;entryDx=0;entryDy=0;fontSize=10;" edge="1" parent="1" source="IXRtnwXpxsoN9EVaq035-35" target="52mvo-1do-57cpNClRD--15">
          <mxGeometry relative="1" as="geometry" />
        </mxCell>
        <mxCell id="IXRtnwXpxsoN9EVaq035-35" value="Append Rapid" style="rounded=0;whiteSpace=wrap;html=1;shadow=0;fillColor=#ffe6cc;strokeColor=#d79b00;fontSize=10;" vertex="1" parent="1">
          <mxGeometry x="374.5" y="530" width="110" height="20" as="geometry" />
        </mxCell>
        <mxCell id="IXRtnwXpxsoN9EVaq035-46" value="No" style="edgeStyle=orthogonalEdgeStyle;rounded=0;orthogonalLoop=1;jettySize=auto;html=1;entryX=0.5;entryY=0;entryDx=0;entryDy=0;fontSize=10;" edge="1" parent="1" source="IXRtnwXpxsoN9EVaq035-41" target="IXRtnwXpxsoN9EVaq035-67">
          <mxGeometry relative="1" as="geometry">
            <mxPoint x="287" y="940" as="targetPoint" />
          </mxGeometry>
        </mxCell>
        <mxCell id="IXRtnwXpxsoN9EVaq035-41" value="Edit it?" style="rhombus;whiteSpace=wrap;html=1;rounded=0;shadow=0;glass=0;fillColor=#fff2cc;strokeColor=#d6b656;fontSize=10;" vertex="1" parent="1">
          <mxGeometry x="192" y="650" width="100" height="40" as="geometry" />
        </mxCell>
        <mxCell id="IXRtnwXpxsoN9EVaq035-68" style="edgeStyle=orthogonalEdgeStyle;rounded=0;orthogonalLoop=1;jettySize=auto;html=1;entryX=0.5;entryY=0;entryDx=0;entryDy=0;fontSize=10;" edge="1" parent="1" source="IXRtnwXpxsoN9EVaq035-55" target="IXRtnwXpxsoN9EVaq035-57">
          <mxGeometry relative="1" as="geometry">
            <Array as="points">
              <mxPoint x="627" y="770" />
              <mxPoint x="437" y="770" />
              <mxPoint x="437" y="790" />
              <mxPoint x="262" y="790" />
            </Array>
          </mxGeometry>
        </mxCell>
        <mxCell id="IXRtnwXpxsoN9EVaq035-55" value="depends on feature" style="whiteSpace=wrap;html=1;rounded=0;strokeColor=#6c8ebf;fillColor=#dae8fc;fontSize=10;" vertex="1" parent="1">
          <mxGeometry x="557" y="790" width="120" height="60" as="geometry" />
        </mxCell>
        <mxCell id="IXRtnwXpxsoN9EVaq035-56" value="Yes" style="edgeStyle=orthogonalEdgeStyle;rounded=0;orthogonalLoop=1;jettySize=auto;html=1;entryX=0.5;entryY=0;entryDx=0;entryDy=0;fontSize=10;" edge="1" parent="1" source="IXRtnwXpxsoN9EVaq035-57" target="IXRtnwXpxsoN9EVaq035-66">
          <mxGeometry relative="1" as="geometry">
            <mxPoint x="259.46000000000004" y="960.5600000000002" as="targetPoint" />
          </mxGeometry>
        </mxCell>
        <mxCell id="IXRtnwXpxsoN9EVaq035-57" value="Does feature &lt;i&gt;n&lt;/i&gt; Exist?" style="rhombus;whiteSpace=wrap;html=1;rounded=0;shadow=0;glass=0;fillColor=#fff2cc;strokeColor=#d6b656;fontSize=10;" vertex="1" parent="1">
          <mxGeometry x="197" y="790" width="90" height="80" as="geometry" />
        </mxCell>
        <mxCell id="IXRtnwXpxsoN9EVaq035-59" value="No" style="edgeStyle=orthogonalEdgeStyle;rounded=0;orthogonalLoop=1;jettySize=auto;html=1;entryX=0;entryY=0.5;entryDx=0;entryDy=0;exitX=1;exitY=0.5;exitDx=0;exitDy=0;fontSize=10;" edge="1" parent="1" source="IXRtnwXpxsoN9EVaq035-57" target="IXRtnwXpxsoN9EVaq035-62">
          <mxGeometry relative="1" as="geometry">
            <mxPoint x="339.5" y="805" as="sourcePoint" />
          </mxGeometry>
        </mxCell>
        <mxCell id="IXRtnwXpxsoN9EVaq035-60" value="Yes" style="edgeStyle=orthogonalEdgeStyle;rounded=0;orthogonalLoop=1;jettySize=auto;html=1;entryX=0;entryY=0.5;entryDx=0;entryDy=0;fontSize=10;exitX=1;exitY=0.5;exitDx=0;exitDy=0;" edge="1" parent="1" source="IXRtnwXpxsoN9EVaq035-66" target="IXRtnwXpxsoN9EVaq035-64">
          <mxGeometry relative="1" as="geometry">
            <mxPoint x="349.5" y="970" as="sourcePoint" />
          </mxGeometry>
        </mxCell>
        <mxCell id="IXRtnwXpxsoN9EVaq035-61" style="edgeStyle=orthogonalEdgeStyle;rounded=0;orthogonalLoop=1;jettySize=auto;html=1;entryX=0;entryY=0.5;entryDx=0;entryDy=0;fontSize=10;" edge="1" parent="1" source="IXRtnwXpxsoN9EVaq035-62" target="IXRtnwXpxsoN9EVaq035-55">
          <mxGeometry relative="1" as="geometry" />
        </mxCell>
        <mxCell id="IXRtnwXpxsoN9EVaq035-62" value="Create feature n" style="rounded=0;whiteSpace=wrap;html=1;shadow=0;fillColor=#ffe6cc;strokeColor=#d79b00;fontSize=10;" vertex="1" parent="1">
          <mxGeometry x="374.5" y="800" width="110" height="20" as="geometry" />
        </mxCell>
        <mxCell id="IXRtnwXpxsoN9EVaq035-63" style="edgeStyle=orthogonalEdgeStyle;rounded=0;orthogonalLoop=1;jettySize=auto;html=1;entryX=0.5;entryY=1;entryDx=0;entryDy=0;fontSize=10;" edge="1" parent="1" source="IXRtnwXpxsoN9EVaq035-64" target="IXRtnwXpxsoN9EVaq035-55">
          <mxGeometry relative="1" as="geometry" />
        </mxCell>
        <mxCell id="IXRtnwXpxsoN9EVaq035-64" value="Append feature n" style="rounded=0;whiteSpace=wrap;html=1;shadow=0;fillColor=#ffe6cc;strokeColor=#d79b00;fontSize=10;" vertex="1" parent="1">
          <mxGeometry x="374.5" y="840" width="110" height="20" as="geometry" />
        </mxCell>
        <mxCell id="IXRtnwXpxsoN9EVaq035-83" value="No" style="edgeStyle=orthogonalEdgeStyle;rounded=0;orthogonalLoop=1;jettySize=auto;html=1;entryX=0.5;entryY=0;entryDx=0;entryDy=0;fontSize=10;" edge="1" parent="1" source="IXRtnwXpxsoN9EVaq035-66" target="IXRtnwXpxsoN9EVaq035-82">
          <mxGeometry relative="1" as="geometry" />
        </mxCell>
        <mxCell id="IXRtnwXpxsoN9EVaq035-66" value="Edit it?" style="rhombus;whiteSpace=wrap;html=1;rounded=0;shadow=0;glass=0;fillColor=#fff2cc;strokeColor=#d6b656;fontSize=10;" vertex="1" parent="1">
          <mxGeometry x="237" y="900" width="100" height="40" as="geometry" />
        </mxCell>
        <mxCell id="IXRtnwXpxsoN9EVaq035-69" style="edgeStyle=orthogonalEdgeStyle;rounded=0;orthogonalLoop=1;jettySize=auto;html=1;entryX=0.5;entryY=0;entryDx=0;entryDy=0;fontSize=10;" edge="1" parent="1" source="IXRtnwXpxsoN9EVaq035-67" target="IXRtnwXpxsoN9EVaq035-57">
          <mxGeometry relative="1" as="geometry" />
        </mxCell>
        <mxCell id="IXRtnwXpxsoN9EVaq035-67" value="Select a Feature Type" style="rounded=0;whiteSpace=wrap;html=1;shadow=0;fillColor=#ffe6cc;strokeColor=#d79b00;fontSize=10;" vertex="1" parent="1">
          <mxGeometry x="187" y="730" width="110" height="20" as="geometry" />
        </mxCell>
        <mxCell id="IXRtnwXpxsoN9EVaq035-72" value="End" style="rounded=1;whiteSpace=wrap;html=1;glass=0;fontSize=10;fillColor=#d5e8d4;strokeColor=#82b366;" vertex="1" parent="1">
          <mxGeometry x="227" y="1060" width="120" height="30" as="geometry" />
        </mxCell>
        <mxCell id="IXRtnwXpxsoN9EVaq035-84" value="Yes" style="edgeStyle=orthogonalEdgeStyle;rounded=0;orthogonalLoop=1;jettySize=auto;html=1;fontSize=10;" edge="1" parent="1" source="IXRtnwXpxsoN9EVaq035-82" target="IXRtnwXpxsoN9EVaq035-72">
          <mxGeometry relative="1" as="geometry" />
        </mxCell>
        <mxCell id="IXRtnwXpxsoN9EVaq035-85" style="edgeStyle=orthogonalEdgeStyle;rounded=0;orthogonalLoop=1;jettySize=auto;html=1;entryX=0;entryY=0.5;entryDx=0;entryDy=0;fontSize=10;" edge="1" parent="1" source="IXRtnwXpxsoN9EVaq035-82" target="52mvo-1do-57cpNClRD--27">
          <mxGeometry relative="1" as="geometry">
            <Array as="points">
              <mxPoint x="172" y="1000" />
              <mxPoint x="172" y="530" />
            </Array>
          </mxGeometry>
        </mxCell>
        <mxCell id="IXRtnwXpxsoN9EVaq035-82" value="Done?" style="rhombus;whiteSpace=wrap;html=1;rounded=0;shadow=0;glass=0;fillColor=#fff2cc;strokeColor=#d6b656;fontSize=10;" vertex="1" parent="1">
          <mxGeometry x="237" y="980" width="100" height="40" as="geometry" />
        </mxCell>
      </root>
    </mxGraphModel>
  </diagram>
</mxfile>
